<?xml version="1.0" encoding="utf-8"?>
<!-- Generator: Adobe Illustrator 16.0.3, SVG Export Plug-In . SVG Version: 6.00 Build 0)  -->
<!DOCTYPE svg PUBLIC "-//W3C//DTD SVG 1.1//EN" "http://www.w3.org/Graphics/SVG/1.1/DTD/svg11.dtd">
<svg version="1.1" id="Layer_1" xmlns="http://www.w3.org/2000/svg" xmlns:xlink="http://www.w3.org/1999/xlink" x="0px" y="0px"
	 width="655px" height="126px" viewBox="0 0 655 126" enable-background="new 0 0 655 126" xml:space="preserve">
<g id="layer101">
	<path d="M-0.333,63.6v-63h327.5h327.5v63v63h-327.5h-327.5V63.6z"/>
</g>
<g id="layer102">
	<path fill="#FFFFFF" d="M0,63V0h327.5H655v63v63H327.5H0V63z M115.4,106.5c3.801-0.8,7-1.6,7.2-1.8c0.4-0.4,8.4-38.3,8.4-39.8
		c0-0.5-5.7-0.9-13.4-0.9H104.2l-1,4l-1,4h8.5h8.399l-0.7,3.8c-0.399,2-1.6,8-2.8,13.2c-2.1,9.3-2.2,9.5-5.6,10.7
		c-1.9,0.7-6.5,1.2-10.101,1.2C82.8,101.1,73.1,92.4,73,77c0-17.6,9.6-33.7,24.399-41c8.4-4.1,20.101-5.2,29-2.6
		c3.2,1,5.9,1.6,6.101,1.4c1.3-1.6,3.5-7.1,3-7.8c-1.2-1.9-9.3-3.4-19-3.3c-11.7,0-20.601,2.6-29.9,8.8C71,42.8,61.2,62.6,62.2,82
		c0.6,12.5,5,19.5,14.699,23.6C85.3,109.1,101.1,109.5,115.4,106.5z M164.7,106c2.6-1.2,5.8-3.1,7-4.2l2.3-2.1v4.1v4.2h5h5v-3.9
		c0-2.199,1.1-10.6,2.5-18.699c4-23.4,3.2-30.3-4-35c-6-3.9-19.9-3.7-28.5,0.4c-3,1.5-3.5,2.1-3.2,4.7c0.2,1.7,0.5,3.1,0.6,3.2
		C151.4,58.8,154,58,157,57c11.1-3.9,20.2-1.6,21.5,5.4c1.3,6.6,0.899,7-9.5,8.4c-15.2,2.101-24.9,7.7-29.101,16.7
		c-3.3,7.1-2.1,14.1,3.101,18.2C147.5,109.4,156.8,109.5,164.7,106z M347.9,106.8l5.3-1.2l-0.699-3.5c-0.4-2-0.801-3.699-0.9-3.8
		c-0.1-0.1-2.4,0.4-5.1,1.2c-10.083,2.5-21,0.834-26.801-4.3C316,93.917,315.1,86.5,315,82.8V80h21.5H357.9l0.7-3.5
		c0.3-1.9,0.3-5.6-0.1-8.3c-2.101-14.4-11.801-22.4-25.301-20.8c-10.699,1.3-19,7.6-24.1,18.6c-2.1,4.75-2.6,6.8-2.6,16
		c0,8.7,0.399,11.2,2.1,14.4C314.3,107.4,328.8,111.3,347.9,106.8z M394.699,106.5C402.3,103.3,406,97.9,406,90.2
		c0-7.4-2.801-10.9-12.601-15.7C383.1,69.5,381,67.6,381,63.4c0-2.4,0.8-3.9,3.1-5.8c3.5-3,8.1-3.3,14.4-1.1
		c4.3,1.5,4.5,1.4,6.3-2.7c1.399-3.3,0.1-4.3-8-5.8c-15.2-2.9-27.8,7.3-25.4,20.3c0.9,4.601,5.3,8.9,13.3,12.7
		c8.101,3.8,9.9,5.3,10.801,8.7c1.699,6.8-4.9,12-14,11c-2.9-0.3-6.7-1.3-8.4-2.2l-3.2-1.6l-1.5,3.8c-1.5,3.399-1.5,3.8,0.2,5
		c1,0.7,3.4,1.5,5.3,1.899c2.038,0.525,4.194,0.775,4.788,0.838C381.125,108.744,391.1,108,394.699,106.5z M577.6,107.9
		c12-2.101,19.2-9.301,21.5-21.5c1-5.4-0.2-29.601-2.7-56.101l-0.6-6.3h-4.9c-5.899,0-5.5-3.6-3.2,30.3
		c1.801,28.101,1.4,33.9-2.8,39.8c-6.399,9.101-23.3,8.9-30.2-0.199c-4.8-6.5-5.699-11.301-6.8-39.2c-0.6-14.4-1.3-27.2-1.5-28.4
		C546,24.3,545.3,24,541,24h-5l0.6,15.3c1.3,34.9,2.2,45.101,4.3,50.7c3.8,10.1,10.601,15.8,21.2,17.9
		C568.3,109.1,570.5,109.1,577.6,107.9z M212.5,105.8c0.2-1.3,1.6-10.2,3-19.8c2.8-18.8,4.7-23.9,10.3-27.8
		c9.5-6.7,18.2-2.3,18.2,9.3c0,4.3-2.7,26.8-4.5,37.3L238.9,108h5.601c3,0,5.5-0.2,5.5-0.3c0-3,5.3-39,6.1-41.4
		c1.2-3.7,7.7-10,11.4-10.9c6.8-1.7,12.8,2.3,14.1,9.4c0.601,3-1.399,26.9-3.3,39.5l-0.6,3.7h5.5h5.5l1.1-9.9
		c3.1-26.699,3.5-33.5,2.2-38c-2.5-9.2-11.4-14.3-21.2-12.2c-6.3,1.4-8.4,2.5-12.9,6.8l-3.6,3.4l-2.1-3.5c-2.801-4.7-7.4-7-14.2-7
		c-6.2,0.1-10.8,2-15.9,6.8l-3.3,3.1l0.5-4.7l0.5-4.8h-4.9c-4.399,0-4.649-0.375-4.899,2.3c-0.167,1.792-2.101,15.601-7.8,52
		l-0.9,5.7h5.3C211.3,108,212,107.7,212.5,105.8z M488,97V86h5.5h5.5v-4v-4h-5.301h-6.366l-0.166-14.4
		C486.953,55.669,487,44.4,487,38.3V27h-5.301H476.3l-11.8,17.8c-6.5,9.7-14.4,21.4-17.601,26C442.4,77,441,79.9,441,82.5V86h18.5
		H478v11v11h5h5V97z"/>
	<path fill="#FFFFFF" d="M151.3,98.4c-2.1-2.2-2.5-3.2-2-6.601c1.1-8.2,10.2-13.8,22.5-13.8h5.4l-0.7,4.3
		C175,92.1,172.1,96.4,164.8,99.4C159.1,101.8,154.4,101.5,151.3,98.4z"/>
	<path fill="#FFFFFF" d="M317.5,68.3c3-8.8,8.417-13.197,15.6-13.1c8.734-0.098,14.4,3.633,15.4,12.6l0.699,4.2h-16.6H316
		L317.5,68.3z"/>
	<path fill="#FFFFFF" d="M451.938,77.833c0.4-0.7,5.063-7.433,9.462-13.733c4.4-6.3,9.9-14.8,12.3-19L478,37.5v20.3V78H464.9
		C454.8,78,451.938,77.833,451.938,77.833z"/>
</g>
</svg>
